<?xml version="1.0" standalone="no"?>
<!DOCTYPE svg PUBLIC "-//W3C//DTD SVG 20010904//EN"
 "http://www.w3.org/TR/2001/REC-SVG-20010904/DTD/svg10.dtd">
<svg version="1.0" xmlns="http://www.w3.org/2000/svg"
 width="512.000000pt" height="512.000000pt" viewBox="0 0 512.000000 512.000000"
 preserveAspectRatio="xMidYMid meet">

<g transform="translate(0.000000,512.000000) scale(0.100000,-0.100000)"
fill="#000000" stroke="none">
<path d="M1133 4800 c-539 -94 -954 -505 -1088 -1075 -112 -478 -9 -946 308
-1400 127 -181 228 -297 471 -541 265 -265 409 -393 1159 -1037 394 -338 516
-438 542 -443 80 -15 77 -16 612 443 279 239 600 517 713 616 246 216 655 623
767 762 226 282 366 531 438 780 163 565 2 1191 -404 1567 -388 359 -966 450
-1430 225 -223 -108 -442 -316 -592 -562 -35 -57 -66 -104 -69 -104 -3 0 -34
47 -69 104 -189 310 -462 536 -761 630 -179 56 -404 69 -597 35z m462 -309
c342 -91 624 -384 800 -831 20 -52 44 -103 53 -114 41 -45 125 -60 180 -32 43
22 58 45 97 146 147 373 358 631 628 764 145 72 224 89 407 90 130 1 170 -3
245 -22 174 -44 390 -170 496 -290 234 -264 349 -628 310 -984 -54 -493 -357
-920 -1156 -1627 -303 -268 -1084 -936 -1095 -936 -11 0 -792 668 -1095 936
-799 707 -1102 1134 -1156 1627 -46 423 128 863 433 1092 129 97 258 157 413
190 120 26 323 22 440 -9z"/>
</g>
</svg>
