<svg width="87" height="77" viewBox="0 0 87 77" fill="none" xmlns="http://www.w3.org/2000/svg">
<path d="M10.875 62.9688C10.875 64.4641 12.0916 65.6875 13.5938 65.6875H81.5625C84.5701 65.6875 87 68.1174 87 71.125C87 74.1326 84.5701 76.5625 81.5625 76.5625H13.5938C6.0866 76.5625 0 70.4793 0 62.9688V5.875C0 2.87248 2.43498 0.4375 5.4375 0.4375C8.44002 0.4375 10.875 2.87248 10.875 5.875V62.9688ZM58.2152 42.3402C56.0912 44.4643 52.6588 44.4643 50.5348 42.3402L40.7812 32.6037L25.5902 47.7777C23.4662 49.9018 20.0338 49.9018 17.9098 47.7777C15.7823 45.6537 15.7823 42.2213 17.9098 40.0973L36.941 21.066C39.065 18.942 42.4975 18.942 44.6215 21.066L54.375 30.8025L72.2848 12.9098C74.4088 10.7823 77.8412 10.7823 79.9652 12.9098C82.0893 15.0338 82.0893 18.4662 79.9652 20.5902L58.2152 42.3402Z" fill="black"/>
</svg>
