<?xml version="1.0" standalone="no"?>
<!DOCTYPE svg PUBLIC "-//W3C//DTD SVG 20010904//EN"
 "http://www.w3.org/TR/2001/REC-SVG-20010904/DTD/svg10.dtd">
<svg version="1.0" xmlns="http://www.w3.org/2000/svg"
 width="512.000000pt" height="512.000000pt" viewBox="0 0 512.000000 512.000000"
 preserveAspectRatio="xMidYMid meet">

<g transform="translate(0.000000,512.000000) scale(0.100000,-0.100000)"
fill="#000000" stroke="none">
<path d="M2410 5113 c-534 -38 -980 -205 -1410 -527 -110 -82 -350 -317 -436
-426 -294 -374 -476 -800 -540 -1271 -23 -168 -23 -490 0 -659 55 -400 194
-769 412 -1091 110 -164 175 -242 328 -394 347 -345 754 -569 1231 -679 345
-79 765 -81 1109 -5 379 84 746 259 1056 503 109 86 344 326 426 436 284 380
448 773 510 1230 23 169 23 491 0 660 -62 457 -241 882 -524 1249 -85 110
-322 348 -432 433 -297 229 -619 385 -970 472 -242 59 -533 86 -760 69z m375
-1068 c338 -64 590 -292 676 -610 29 -107 32 -337 6 -435 -75 -276 -233 -531
-568 -920 -73 -85 -193 -225 -267 -310 l-133 -155 433 -5 c482 -6 468 -4 550
-78 58 -52 79 -105 79 -197 0 -154 -77 -240 -238 -265 -46 -7 -317 -10 -804
-8 -728 3 -734 3 -787 25 -118 48 -172 126 -173 247 -1 120 10 136 430 611
315 356 444 511 593 709 195 261 238 348 246 501 3 75 0 100 -18 147 -26 70
-92 141 -158 170 -69 31 -181 29 -253 -4 -105 -49 -141 -102 -211 -311 -27
-84 -59 -170 -70 -192 -47 -93 -117 -138 -218 -138 -126 0 -211 47 -265 144
-29 52 -30 59 -30 179 1 138 19 223 75 346 136 299 443 522 779 564 80 10 231
3 326 -15z"/>
</g>
</svg>
