<svg width="98" height="87" viewBox="0 0 98 87" fill="none" xmlns="http://www.w3.org/2000/svg">
<path d="M56.605 3.37295C56.9283 1.42649 58.6126 0 60.5862 0C61.8623 0 63.0533 0.598125 63.8189 1.6146L66.6942 5.4375H75.5585C77.7192 5.4375 79.8119 6.29731 81.3432 7.8266L84.3887 10.875H93.9164C96.1793 10.875 97.9998 12.7017 97.9998 14.9531V19.0312C97.9998 26.5418 91.9088 32.625 84.3887 32.625H72.598L71.7303 37.8076L52.6748 26.9326L56.605 3.37295ZM76.222 10.875C74.7248 10.875 73.4998 12.0916 73.4998 13.5938C73.4998 15.0959 74.7248 16.3125 76.222 16.3125C77.7192 16.3125 78.9442 15.0959 78.9442 13.5938C78.9442 12.0916 77.7192 10.875 76.222 10.875ZM70.7776 43.517V81.5625C70.7776 84.5701 68.3446 87 65.3331 87H59.8887C56.8772 87 54.4442 84.5701 54.4442 81.5625V61.9875C50.2078 64.0775 45.7331 65.25 40.8331 65.25C35.9331 65.25 31.3053 64.0775 27.222 61.9875V81.5625C27.222 84.5701 24.789 87 21.7776 87H16.3331C13.3268 87 10.8887 84.5701 10.8887 81.5625V42.4465C5.99378 40.5943 2.15034 36.4482 0.822575 31.1467L0.162402 28.5129C-0.566949 25.5902 1.20675 22.6336 4.12395 21.767C7.04013 21.1893 9.99714 22.9564 10.727 25.8621L11.3872 28.5129C11.9929 30.9258 14.1707 32.4721 16.6683 32.4721H51.688L70.7776 43.517Z" fill="black"/>
</svg>
