<svg width="33" height="82" viewBox="0 0 33 82" fill="none" xmlns="http://www.w3.org/2000/svg">
<path d="M27.5 71.125H22V33.0625C22 30.0566 19.537 27.625 16.5 27.625H5.5C2.46297 27.625 0 30.0566 0 33.0625C0 36.0684 2.46297 38.3471 5.5 38.3471H11V70.9721H5.5C2.46297 70.9721 0 73.4037 0 76.4096C0 79.4155 2.46297 81.8471 5.5 81.8471H27.5C30.537 81.8471 33 79.4155 33 76.4096C33 73.4037 30.5422 71.125 27.5 71.125ZM16.5 16.75C21.0564 16.75 24.75 13.0984 24.75 8.59376C24.75 4.08913 21.0547 0.439209 16.5 0.439209C11.9453 0.439209 8.25 4.09083 8.25 8.59546C8.25 13.1001 11.9436 16.75 16.5 16.75Z" fill="black"/>
</svg>
