<?xml version="1.0" standalone="no"?>
<!DOCTYPE svg PUBLIC "-//W3C//DTD SVG 20010904//EN"
 "http://www.w3.org/TR/2001/REC-SVG-20010904/DTD/svg10.dtd">
<svg version="1.0" xmlns="http://www.w3.org/2000/svg"
 width="512.000000pt" height="512.000000pt" viewBox="0 0 512.000000 512.000000"
 preserveAspectRatio="xMidYMid meet">

<g transform="translate(0.000000,512.000000) scale(0.100000,-0.100000)"
fill="#000000" stroke="none">
<path d="M1025 4943 c-137 -19 -274 -94 -348 -192 -19 -25 -180 -296 -357
-601 l-321 -555 4 -200 c3 -172 7 -208 25 -258 56 -153 151 -274 280 -357 l71
-45 3 -1150 3 -1150 28 -57 c49 -100 140 -173 249 -198 28 -6 711 -10 1898
-10 2056 0 1924 -4 2026 65 53 37 99 93 130 160 18 38 19 92 22 1190 l3 1150
71 45 c131 84 231 215 284 370 16 46 19 86 19 250 l0 195 -330 570 c-361 623
-387 661 -506 719 -134 65 -9 60 -1694 62 -841 1 -1543 -1 -1560 -3z m553
-240 c-3 -10 -72 -244 -154 -520 l-148 -503 -474 0 c-375 0 -473 3 -469 13 19
49 525 909 550 935 75 79 129 89 456 91 227 1 243 0 239 -16z m2556 -12 c32
-13 74 -40 95 -60 27 -28 541 -894 559 -942 2 -5 -196 -9 -472 -9 l-475 0 -30
98 c-22 72 -227 756 -277 925 -6 18 5 19 268 15 256 -4 277 -6 332 -27z
m-1694 -496 l0 -515 -455 0 c-250 0 -455 4 -455 8 0 7 116 400 281 955 l20 67
304 0 305 0 0 -515z m869 418 c16 -54 84 -280 151 -503 66 -223 123 -411 125
-417 3 -10 -91 -13 -450 -13 l-455 0 0 515 0 515 300 0 299 0 30 -97z m321
-1334 l0 -171 -62 -62 c-215 -214 -611 -214 -825 0 l-63 62 0 171 0 171 475 0
475 0 0 -171z m1248 63 c-4 -95 -8 -116 -35 -173 -39 -82 -88 -137 -166 -189
-93 -61 -200 -92 -322 -93 -174 -1 -313 51 -422 158 l-63 61 0 172 0 172 506
0 507 0 -5 -108z m-3628 -60 l0 -159 -30 -41 c-83 -115 -279 -202 -453 -202
-139 1 -301 64 -396 155 -98 93 -140 201 -141 358 l0 47 510 0 510 0 0 -158z
m1190 -8 l0 -166 -63 -63 c-110 -110 -236 -159 -412 -160 -176 0 -311 52 -421
162 l-54 53 0 170 0 170 475 0 475 0 0 -166z m-1027 -434 c110 -90 251 -155
393 -180 113 -20 299 -9 404 25 109 35 199 82 278 145 l62 51 63 -49 c180
-138 347 -189 578 -180 190 8 348 66 487 179 l63 51 56 -47 c158 -130 349
-191 576 -184 l117 4 0 -1087 0 -1088 -29 -32 -29 -33 -1141 -3 -1141 -2 0
835 c0 913 3 867 -59 938 -60 68 -64 68 -553 65 l-436 -3 -43 -30 c-27 -19
-54 -50 -71 -84 l-28 -53 0 -835 0 -835 -141 4 -141 3 -29 33 -29 32 0 1088 0
1087 148 0 c122 0 160 4 227 23 107 31 227 91 300 151 33 28 62 50 65 50 3 1
27 -17 53 -39z m505 -1627 l2 -803 -360 0 -360 0 0 805 0 805 358 -2 357 -3 3
-802z"/>
<path d="M2590 2234 c-45 -20 -96 -69 -123 -119 -21 -39 -22 -53 -25 -405 -2
-243 0 -382 8 -416 14 -68 57 -124 122 -160 l53 -29 649 -3 c745 -3 724 -5
805 76 72 72 72 78 69 523 l-3 386 -30 49 c-19 30 -49 60 -79 79 l-49 30 -681
2 c-592 2 -686 0 -716 -13z m1328 -556 l2 -338 -620 0 -620 0 0 340 0 340 618
-2 617 -3 3 -337z"/>
</g>
</svg>
