<svg width="54" height="87" viewBox="0 0 54 87" fill="none" xmlns="http://www.w3.org/2000/svg">
<path d="M35.1002 8.15625C35.1002 12.6609 31.472 16.3125 27.0002 16.3125C22.5283 16.3125 18.9002 12.6609 18.9002 8.15625C18.9002 3.65162 22.5283 0 27.0002 0C31.472 0 35.1002 3.65162 35.1002 8.15625ZM25.6502 59.8125V81.5625C25.6502 84.5701 23.237 87 20.2502 87C17.2633 87 14.8502 84.5701 14.8502 81.5625V43.6529L10.029 51.7412C8.49335 54.307 5.17573 55.1396 2.61917 53.5934C0.062536 52.0471 -0.76444 48.7166 0.77186 46.1338L10.6061 29.6684C13.5339 24.7576 18.7989 21.75 24.4858 21.75H29.5145C35.2014 21.75 40.4664 24.7576 43.4027 29.6684L53.2239 46.1338C54.7595 48.7166 53.9327 52.0471 51.3845 53.5934C48.8195 55.1396 45.512 54.307 43.9764 51.7412L39.1502 43.6529V81.5625C39.1502 84.5701 36.737 87 33.7502 87C30.7633 87 28.3502 84.5701 28.3502 81.5625V59.8125H25.6502Z" fill="black"/>
</svg>
