<?xml version="1.0" standalone="no"?>
<!DOCTYPE svg PUBLIC "-//W3C//DTD SVG 20010904//EN"
 "http://www.w3.org/TR/2001/REC-SVG-20010904/DTD/svg10.dtd">
<svg version="1.0" xmlns="http://www.w3.org/2000/svg"
 width="512.000000pt" height="512.000000pt" viewBox="0 0 512.000000 512.000000"
 preserveAspectRatio="xMidYMid meet">

<g transform="translate(0.000000,512.000000) scale(0.100000,-0.100000)"
fill="#000000" stroke="none">
<path d="M952 4409 c-91 -18 -215 -108 -318 -231 -99 -118 -471 -595 -513
-657 -128 -188 -150 -328 -77 -475 41 -84 59 -103 263 -266 86 -69 170 -144
186 -167 l30 -43 -70 -72 c-101 -104 -118 -141 -118 -253 0 -76 4 -99 26 -145
33 -71 80 -125 146 -167 60 -38 162 -67 208 -60 l32 5 5 -66 c13 -173 166
-320 343 -330 l70 -4 3 -57 c8 -173 171 -327 358 -339 61 -4 74 -8 74 -22 0
-9 14 -44 31 -78 98 -197 353 -257 499 -117 l35 33 113 -88 c94 -74 121 -91
168 -100 163 -34 346 87 386 257 l12 50 47 -5 c168 -16 358 145 376 320 l5 54
92 -1 c78 0 99 4 148 27 106 49 200 169 215 273 3 25 10 48 15 51 4 3 25 0 46
-7 149 -49 336 41 414 199 30 61 33 74 33 162 0 89 -2 99 -32 152 l-32 57 82
39 c147 71 264 156 383 276 61 62 157 148 212 190 278 213 331 369 210 610
-43 85 -62 112 -327 461 -269 353 -354 445 -459 498 -91 45 -158 54 -243 33
-87 -23 -159 -65 -337 -200 -89 -67 -168 -119 -190 -125 -61 -17 -159 -29
-312 -42 l-145 -11 -120 50 c-278 117 -374 128 -765 88 -140 -15 -336 -32
-435 -38 l-180 -11 -142 111 c-148 115 -231 162 -321 181 -59 12 -69 12 -130
0z m173 -153 c75 -35 258 -175 247 -189 -5 -7 -218 -277 -472 -602 -254 -324
-465 -593 -469 -597 -6 -7 -152 100 -207 154 -18 16 -44 52 -59 80 -52 95 -31
200 67 344 74 109 506 652 568 714 116 116 217 147 325 96z m3084 2 c76 -36
173 -146 434 -488 279 -366 338 -464 339 -561 1 -100 -45 -165 -200 -286 -82
-64 -84 -65 -102 -47 -34 36 -920 1195 -920 1204 0 16 181 147 240 174 71 33
146 35 209 4z m-1536 -230 c42 -11 79 -24 82 -28 3 -4 -12 -10 -33 -14 -20 -3
-181 -58 -357 -122 -259 -93 -342 -119 -433 -134 -190 -31 -258 -83 -269 -207
-13 -143 97 -291 264 -353 106 -39 203 -45 365 -22 79 12 206 29 283 38 134
17 143 17 195 0 30 -10 80 -33 110 -51 30 -19 309 -233 620 -477 628 -492 616
-481 607 -584 -7 -65 -35 -122 -83 -164 -50 -44 -93 -60 -156 -60 l-53 0 -275
215 c-290 227 -308 237 -350 195 -24 -24 -25 -48 -5 -77 9 -12 96 -85 194
-162 98 -77 186 -153 196 -168 44 -66 27 -183 -39 -260 -50 -59 -154 -91 -224
-69 -12 4 -109 75 -214 157 -109 84 -200 149 -212 149 -38 0 -66 -28 -66 -66
0 -32 9 -41 144 -148 125 -99 146 -121 161 -160 31 -81 9 -171 -59 -239 -46
-46 -95 -67 -158 -67 -64 0 -74 6 -237 134 -67 53 -131 96 -142 96 -24 0 -69
-43 -69 -65 0 -31 19 -51 129 -135 60 -47 113 -93 117 -103 21 -62 -35 -171
-111 -214 -44 -25 -117 -30 -151 -10 -23 13 -184 138 -184 142 0 2 11 27 25
57 29 63 33 150 10 219 -33 94 -120 182 -214 216 l-46 16 0 96 c-1 119 -21
168 -110 257 -67 68 -136 100 -236 111 l-58 6 -6 46 c-26 193 -183 341 -360
341 l-55 0 0 33 c0 50 -28 136 -62 190 -109 171 -342 228 -494 119 l-39 -28
-42 52 -42 52 477 606 477 606 180 4 c144 4 508 33 725 60 65 8 205 -5 283
-26z m1445 -643 c260 -338 472 -618 472 -624 0 -17 -161 -161 -238 -212 -78
-51 -271 -149 -294 -149 -7 0 -240 178 -518 396 -278 218 -534 415 -570 439
-157 100 -228 110 -520 69 -275 -38 -363 -41 -448 -15 -127 39 -223 143 -208
226 4 20 16 41 29 50 12 8 76 23 142 34 99 17 176 41 440 136 347 127 390 138
600 155 345 28 491 51 585 93 19 8 40 16 46 16 6 1 223 -276 482 -614z m-3192
-780 c123 -51 184 -212 118 -311 -30 -44 -229 -253 -259 -271 -27 -17 -128
-16 -169 1 -107 45 -177 176 -146 272 18 52 259 310 303 323 37 11 108 5 153
-14z m419 -399 c88 -40 145 -124 145 -211 0 -65 -18 -94 -149 -232 -86 -92
-126 -127 -158 -139 -101 -39 -228 21 -279 131 -27 57 -30 111 -9 160 19 46
226 264 278 293 52 28 108 28 172 -2z m420 -395 c54 -24 119 -100 135 -156 21
-74 7 -126 -52 -192 -97 -109 -203 -214 -230 -229 -15 -8 -53 -14 -85 -14 -49
0 -68 6 -113 33 -97 58 -145 178 -107 267 16 39 226 263 272 292 39 24 127 24
180 -1z m295 -463 c52 -27 106 -94 116 -143 12 -67 -3 -101 -79 -181 -39 -42
-83 -82 -99 -90 -80 -41 -199 10 -249 108 -37 72 -30 88 89 214 121 129 136
135 222 92z"/>
</g>
</svg>
