<?xml version="1.0" standalone="no"?>
<!DOCTYPE svg PUBLIC "-//W3C//DTD SVG 20010904//EN"
 "http://www.w3.org/TR/2001/REC-SVG-20010904/DTD/svg10.dtd">
<svg version="1.0" xmlns="http://www.w3.org/2000/svg"
 width="512.000000pt" height="512.000000pt" viewBox="0 0 512.000000 512.000000"
 preserveAspectRatio="xMidYMid meet">

<g transform="translate(0.000000,512.000000) scale(0.100000,-0.100000)"
fill="#000000" stroke="none">
<path d="M1235 5101 c-53 -24 -83 -55 -106 -105 -18 -40 -19 -120 -19 -2436 0
-2310 1 -2396 19 -2435 23 -49 64 -89 113 -109 33 -14 183 -16 1320 -16 1229
0 1285 1 1323 19 53 24 83 55 106 105 18 40 19 120 19 2436 0 2310 -1 2396
-19 2435 -23 49 -64 89 -113 109 -33 14 -183 16 -1320 16 -1229 0 -1285 -1
-1323 -19z m1395 -173 c107 -56 108 -208 0 -265 -24 -13 -55 -23 -70 -23 -43
0 -111 42 -131 80 -24 44 -24 105 -1 150 20 38 89 80 132 80 14 0 46 -10 70
-22z m1070 -473 c16 -8 34 -24 40 -34 7 -13 10 -589 10 -1771 l0 -1752 -29
-29 -29 -29 -1132 0 -1132 0 -29 29 -29 29 0 1752 c0 1177 3 1758 10 1770 27
51 -17 49 1178 50 974 0 1117 -2 1142 -15z m-1027 -3887 c125 -69 144 -249 36
-341 -66 -57 -151 -72 -224 -38 -83 38 -128 108 -127 198 1 163 171 260 315
181z"/>
</g>
</svg>
