<svg width="90" height="87" viewBox="0 0 90 87" fill="none" xmlns="http://www.w3.org/2000/svg">
<path d="M60.8571 25.5392L85.306 29.1416C87.3307 29.4305 89.0321 30.8578 89.6786 32.8119C90.3251 34.783 89.7977 36.924 88.3345 38.3853L70.606 55.7514L74.7914 80.6619C75.1317 82.701 74.298 84.774 72.5966 85.9805C70.9123 87.1869 68.6835 87.3398 66.863 86.3713L45.0171 74.7316L23.1883 86.3713C21.3508 87.3398 19.122 87.1869 17.4376 85.9805C15.7532 84.774 14.9025 82.701 15.2598 80.6619L19.4453 55.7514L1.71339 38.3853C0.248489 36.924 -0.272136 34.783 0.370989 32.8119C1.01241 30.8578 2.7087 29.4305 4.74866 29.1416L29.1772 25.5392L40.1341 3.05349C41.0359 1.18163 42.9414 -0.00665283 45.0171 -0.00665283C47.1098 -0.00665283 49.0154 1.18163 49.9171 3.05349L60.8571 25.5392Z" fill="black"/>
</svg>
