<?xml version="1.0" standalone="no"?>
<!DOCTYPE svg PUBLIC "-//W3C//DTD SVG 20010904//EN"
 "http://www.w3.org/TR/2001/REC-SVG-20010904/DTD/svg10.dtd">
<svg version="1.0" xmlns="http://www.w3.org/2000/svg"
 width="512.000000pt" height="512.000000pt" viewBox="0 0 512.000000 512.000000"
 preserveAspectRatio="xMidYMid meet">

<g transform="translate(0.000000,512.000000) scale(0.100000,-0.100000)"
fill="#000000" stroke="none">
<path d="M2410 5113 c-534 -38 -980 -205 -1410 -527 -110 -82 -350 -317 -436
-426 -294 -374 -476 -800 -540 -1271 -23 -168 -23 -490 0 -659 55 -400 194
-769 412 -1091 110 -164 175 -242 328 -394 347 -345 754 -569 1231 -679 345
-79 765 -81 1109 -5 379 84 746 259 1056 503 109 86 344 326 426 436 284 380
448 773 510 1230 23 169 23 491 0 660 -62 457 -241 882 -524 1249 -85 110
-322 348 -432 433 -297 229 -619 385 -970 472 -242 59 -533 86 -760 69z m352
-1053 c415 -91 703 -451 659 -826 -14 -114 -42 -210 -88 -292 -39 -72 -136
-179 -201 -224 l-44 -31 63 -34 c146 -77 282 -218 355 -368 58 -120 77 -204
76 -340 -1 -607 -669 -1046 -1334 -876 -356 91 -656 383 -698 678 -20 141 35
241 170 310 47 24 67 28 137 28 74 0 85 -3 124 -30 30 -21 70 -71 127 -155 46
-69 102 -144 125 -168 55 -56 144 -99 235 -113 299 -45 523 203 447 496 -37
142 -116 195 -345 231 -156 24 -225 49 -273 97 -51 51 -67 99 -67 198 0 145
60 218 219 265 47 14 117 35 155 46 83 26 142 69 176 128 22 40 25 57 25 145
0 110 -15 153 -72 207 -53 51 -118 72 -218 71 -166 -1 -251 -56 -392 -255 -81
-113 -128 -143 -229 -143 -58 1 -78 6 -116 28 -89 52 -136 134 -145 253 -16
203 149 431 417 577 83 46 257 104 346 116 93 13 259 4 366 -19z"/>
</g>
</svg>
