<?xml version="1.0" standalone="no"?>
<!DOCTYPE svg PUBLIC "-//W3C//DTD SVG 20010904//EN"
 "http://www.w3.org/TR/2001/REC-SVG-20010904/DTD/svg10.dtd">
<svg version="1.0" xmlns="http://www.w3.org/2000/svg"
 width="512.000000pt" height="512.000000pt" viewBox="0 0 512.000000 512.000000"
 preserveAspectRatio="xMidYMid meet">

<g transform="translate(0.000000,512.000000) scale(0.100000,-0.100000)"
fill="#000000" stroke="none">
<path d="M2410 5113 c-534 -38 -980 -205 -1410 -527 -110 -82 -350 -317 -436
-426 -294 -374 -476 -800 -540 -1271 -23 -168 -23 -490 0 -659 55 -400 194
-769 412 -1091 110 -164 175 -242 328 -394 347 -345 754 -569 1231 -679 345
-79 765 -81 1109 -5 379 84 746 259 1056 503 109 86 344 326 426 436 284 380
448 773 510 1230 23 169 23 491 0 660 -62 457 -241 882 -524 1249 -85 110
-322 348 -432 433 -297 229 -619 385 -970 472 -242 59 -533 86 -760 69z m558
-1082 c59 -27 105 -74 136 -140 l21 -46 0 -1275 0 -1275 -26 -55 c-61 -131
-193 -196 -343 -169 -80 14 -125 39 -174 94 -82 94 -77 5 -80 1221 l-3 1081
-152 6 c-84 3 -170 12 -192 19 -23 7 -61 34 -91 63 -42 42 -53 61 -69 117 -31
115 -8 212 67 294 48 52 81 72 141 84 23 5 193 8 377 7 329 -2 336 -2 388 -26z"/>
</g>
</svg>
