<?xml version="1.0" standalone="no"?>
<!DOCTYPE svg PUBLIC "-//W3C//DTD SVG 20010904//EN"
 "http://www.w3.org/TR/2001/REC-SVG-20010904/DTD/svg10.dtd">
<svg version="1.0" xmlns="http://www.w3.org/2000/svg"
 width="512.000000pt" height="512.000000pt" viewBox="0 0 512.000000 512.000000"
 preserveAspectRatio="xMidYMid meet">

<g transform="translate(0.000000,512.000000) scale(0.100000,-0.100000)"
fill="#000000" stroke="none">
<path d="M1425 5106 c-39 -17 -70 -52 -90 -98 -13 -33 -15 -135 -15 -803 l0
-765 69 -72 c38 -40 132 -120 210 -178 l141 -105 0 -212 0 -211 -34 -20 c-47
-28 -84 -80 -96 -138 -7 -33 -10 -418 -8 -1200 l3 -1151 30 -49 c23 -37 44
-56 85 -77 53 -27 59 -28 182 -25 122 3 128 4 170 33 23 17 54 51 68 75 l25
45 3 1163 c1 795 -1 1176 -8 1203 -12 45 -60 103 -101 125 l-29 15 0 213 0
214 88 69 c129 101 240 201 273 246 l29 40 0 759 c0 726 -1 760 -19 796 -10
20 -30 47 -43 59 -34 32 -107 63 -150 63 l-38 0 0 -754 0 -755 -24 -28 c-21
-25 -31 -28 -81 -28 -50 0 -60 3 -81 28 l-24 28 0 755 0 754 -90 0 -90 0 0
-744 c0 -450 -4 -755 -10 -770 -23 -60 -133 -73 -177 -21 l-23 26 0 755 0 754
-57 0 c-32 -1 -71 -7 -88 -14z"/>
<path d="M3593 5079 c-53 -26 -202 -182 -268 -279 -119 -178 -213 -415 -255
-643 -57 -318 -46 -953 25 -1372 47 -277 110 -477 220 -700 l65 -130 2 -927
c3 -918 3 -927 24 -954 45 -61 66 -69 184 -69 118 0 139 8 184 69 l21 27 0
2437 c0 2417 0 2437 -20 2477 -23 45 -76 85 -114 85 -14 0 -45 -9 -68 -21z"/>
</g>
</svg>
